<svg width="5760" height="1440" viewBox="0 0 5760 1440" fill="none" xmlns="http://www.w3.org/2000/svg">
<g clip-path="url(#clip0_407_119)">
<path d="M227.206 1301.2C206.486 1301.2 186.186 1298.26 166.306 1292.38C146.706 1286.22 130.186 1277.82 116.746 1267.18L140.266 1224.76C150.906 1233.44 163.786 1240.44 178.906 1245.76C194.026 1251.08 209.846 1253.74 226.366 1253.74C245.966 1253.74 261.226 1249.82 272.146 1241.98C283.066 1233.86 288.526 1222.94 288.526 1209.22C288.526 1195.78 283.486 1185.14 273.406 1177.3C263.326 1169.46 247.086 1165.54 224.686 1165.54H197.806V1128.16L281.806 1028.2L288.946 1048.78H131.026V1003H331.366V1039.54L247.366 1139.5L218.806 1122.7H235.186C271.306 1122.7 298.326 1130.82 316.246 1147.06C334.446 1163.02 343.546 1183.6 343.546 1208.8C343.546 1225.32 339.346 1240.58 330.946 1254.58C322.546 1268.58 309.666 1279.92 292.306 1288.6C275.226 1297 253.526 1301.2 227.206 1301.2ZM472.598 1301.2C451.878 1301.2 431.578 1298.26 411.698 1292.38C392.098 1286.22 375.578 1277.82 362.138 1267.18L385.238 1224.76C395.878 1233.44 408.758 1240.44 423.878 1245.76C439.278 1251.08 455.238 1253.74 471.758 1253.74C491.078 1253.74 506.198 1249.68 517.118 1241.56C528.318 1233.44 533.918 1222.52 533.918 1208.8C533.918 1199.56 531.538 1191.44 526.778 1184.44C522.298 1177.44 514.178 1172.12 502.418 1168.48C490.938 1164.84 475.118 1163.02 454.958 1163.02H383.978L399.098 1003H571.718V1048.78H419.258L447.818 1022.74L436.478 1142.44L407.918 1116.82H467.138C496.258 1116.82 519.638 1120.74 537.278 1128.58C555.198 1136.14 568.218 1146.78 576.338 1160.5C584.738 1173.94 588.938 1189.34 588.938 1206.7C588.938 1223.78 584.738 1239.46 576.338 1253.74C567.938 1268.02 555.058 1279.5 537.698 1288.18C520.618 1296.86 498.918 1301.2 472.598 1301.2ZM614.6 1297V1260.46L731.36 1149.58C741.16 1140.34 748.44 1132.22 753.2 1125.22C757.96 1118.22 761.04 1111.78 762.44 1105.9C764.12 1099.74 764.96 1094 764.96 1088.68C764.96 1075.24 760.34 1064.88 751.1 1057.6C741.86 1050.04 728.28 1046.26 710.36 1046.26C696.08 1046.26 683.06 1048.78 671.3 1053.82C659.82 1058.86 649.88 1066.56 641.48 1076.92L603.26 1047.52C614.74 1032.12 630.14 1020.22 649.46 1011.82C669.06 1003.14 690.9 998.8 714.98 998.8C736.26 998.8 754.74 1002.3 770.42 1009.3C786.38 1016.02 798.56 1025.68 806.96 1038.28C815.64 1050.88 819.98 1065.86 819.98 1083.22C819.98 1092.74 818.72 1102.26 816.2 1111.78C813.68 1121.02 808.92 1130.82 801.92 1141.18C794.92 1151.54 784.7 1163.16 771.26 1176.04L670.88 1271.38L659.54 1250.8H831.32V1297H614.6ZM990.094 1301.2C963.494 1301.2 940.674 1295.6 921.634 1284.4C902.594 1272.92 888.034 1256.4 877.954 1234.84C867.874 1213.28 862.834 1186.68 862.834 1155.04C862.834 1121.44 868.854 1093.02 880.894 1069.78C893.214 1046.54 910.154 1028.9 931.714 1016.86C953.554 1004.82 978.614 998.8 1006.89 998.8C1021.73 998.8 1035.87 1000.34 1049.31 1003.42C1063.03 1006.5 1074.65 1011.26 1084.17 1017.7L1064.01 1058.86C1055.89 1053.54 1047.07 1049.9 1037.55 1047.94C1028.31 1045.7 1018.51 1044.58 1008.15 1044.58C980.434 1044.58 958.454 1053.12 942.214 1070.2C925.974 1087.28 917.854 1112.48 917.854 1145.8C917.854 1151.12 917.994 1157.42 918.274 1164.7C918.554 1171.7 919.534 1178.84 921.214 1186.12L904.414 1167.64C909.454 1156.16 916.314 1146.64 924.994 1139.08C933.954 1131.24 944.454 1125.36 956.494 1121.44C968.814 1117.52 982.114 1115.56 996.394 1115.56C1015.71 1115.56 1032.93 1119.34 1048.05 1126.9C1063.17 1134.18 1075.21 1144.68 1084.17 1158.4C1093.13 1171.84 1097.61 1187.66 1097.61 1205.86C1097.61 1225.18 1092.85 1241.98 1083.33 1256.26C1073.81 1270.54 1060.93 1281.6 1044.69 1289.44C1028.45 1297.28 1010.25 1301.2 990.094 1301.2ZM987.154 1258.36C998.354 1258.36 1008.29 1256.4 1016.97 1252.48C1025.65 1248.28 1032.37 1242.4 1037.13 1234.84C1042.17 1227.28 1044.69 1218.46 1044.69 1208.38C1044.69 1192.98 1039.37 1180.8 1028.73 1171.84C1018.09 1162.88 1003.81 1158.4 985.894 1158.4C974.134 1158.4 963.774 1160.64 954.814 1165.12C946.134 1169.32 939.134 1175.2 933.814 1182.76C928.774 1190.32 926.254 1199 926.254 1208.8C926.254 1217.76 928.634 1226.02 933.394 1233.58C938.154 1241.14 945.014 1247.16 953.974 1251.64C963.214 1256.12 974.274 1258.36 987.154 1258.36Z" fill="#130047"/>
<path d="M129.969 904.576V206.171H421.249C496.394 206.171 555.254 221.47 597.812 252.067C640.37 282.664 661.654 326.896 661.654 384.764C661.654 422.678 652.682 454.605 634.726 480.546C616.77 506.487 591.827 526.11 559.906 539.412C528.646 552.051 493.407 558.369 454.167 558.369L472.122 538.415C520.004 538.415 560.908 545.399 594.825 559.367C628.741 573.335 654.335 593.623 671.629 620.228C689.585 646.835 698.568 680.092 698.568 720.001C698.568 778.532 677.284 824.097 634.726 856.685C592.157 888.613 527.654 904.576 441.204 904.576H129.969ZM180.843 860.676H441.204C508.364 860.676 559.575 849.376 594.825 826.754C630.064 803.48 647.689 766.562 647.689 716.01C647.689 666.124 630.064 629.874 594.825 607.258C559.575 583.978 508.364 572.337 441.204 572.337H174.858V528.437H419.254C479.772 528.437 526.651 516.797 559.906 493.517C593.16 470.237 609.782 435.317 609.782 388.755C609.782 342.86 593.16 308.272 559.906 284.992C526.651 261.712 479.772 250.071 419.254 250.071H180.843V860.676ZM784.303 904.576V164.267H834.18V904.576H784.303ZM1176.08 908.567C1131.52 908.567 1092.95 900.585 1060.37 884.622C1027.78 867.997 1002.51 843.39 984.557 810.79C967.263 777.539 958.621 736.63 958.621 688.074V383.767H1008.5V684.083C1008.5 742.617 1023.46 787.186 1053.38 817.779C1083.31 848.373 1125.53 863.675 1180.07 863.675C1219.3 863.675 1253.22 855.362 1281.82 838.726C1310.42 822.101 1332.36 798.817 1347.66 768.89C1362.95 738.293 1370.6 702.375 1370.6 661.135V383.767H1420.47V904.576H1372.59V759.91L1379.58 776.867C1364.28 817.449 1338.68 849.707 1302.77 873.652C1267.52 896.936 1225.29 908.567 1176.08 908.567ZM1763.57 908.567C1711.04 908.567 1664.48 897.267 1623.92 874.644C1584.02 852.033 1552.43 820.767 1529.16 780.858C1506.54 740.953 1495.24 695.391 1495.24 644.174C1495.24 592.292 1505.88 546.729 1527.16 507.485C1549.11 467.576 1579.03 436.314 1616.94 413.699C1654.85 391.084 1697.41 379.776 1744.63 379.776C1791.84 379.776 1834.06 390.751 1871.31 412.701C1909.21 434.651 1938.81 465.58 1960.09 505.49C1982.04 544.734 1993.01 590.296 1993.01 642.178C1993.01 644.174 1992.68 646.502 1992.01 649.162C1992.01 651.158 1992.01 653.486 1992.01 656.146H1532.15V617.235H1965.08L1945.12 636.192C1945.79 595.618 1937.14 559.367 1919.19 527.44C1901.89 494.847 1878.3 469.571 1848.37 451.612C1818.44 432.988 1783.86 423.676 1744.63 423.676C1706.05 423.676 1671.47 432.988 1640.88 451.612C1610.96 469.571 1587.35 494.847 1570.05 527.44C1552.76 559.367 1544.12 595.951 1544.12 637.19V646.169C1544.12 688.74 1553.43 726.653 1572.05 759.91C1591.34 792.5 1617.6 818.11 1650.86 836.731C1684.1 854.69 1722.01 863.675 1764.58 863.675C1797.82 863.675 1828.75 857.688 1857.34 845.716C1886.61 833.743 1911.21 815.453 1931.16 790.835L1960.09 823.766C1937.48 851.702 1908.88 872.991 1874.31 887.62C1840.39 901.589 1803.48 908.567 1763.57 908.567ZM2259.87 904.576V206.171H2310.74V904.576H2259.87ZM2674.76 1102.13C2627.55 1102.13 2582.65 1094.82 2540.09 1080.18C2497.54 1065.55 2462.95 1045.26 2436.35 1019.32L2463.28 981.407C2489.21 1005.35 2520.14 1023.97 2556.05 1037.28C2592.63 1050.59 2631.87 1057.23 2673.76 1057.23C2743.59 1057.23 2794.8 1040.94 2827.38 1008.34C2860.64 975.751 2877.26 924.531 2877.26 854.69V710.024L2887.24 632.201L2879.26 554.378V383.767H2927.14V848.704C2927.14 935.842 2905.85 999.697 2863.3 1040.27C2821.4 1081.51 2758.55 1102.13 2674.76 1102.13ZM2660.79 885.625C2611.59 885.625 2567.36 874.986 2528.12 853.698C2489.56 831.748 2458.63 801.816 2435.35 763.901C2412.74 725.323 2401.43 681.423 2401.43 632.201C2401.43 582.315 2412.74 538.415 2435.35 500.501C2458.63 462.587 2489.56 432.988 2528.12 411.703C2567.36 390.419 2611.59 379.776 2660.79 379.776C2708.01 379.776 2750.24 390.086 2787.48 410.705C2825.39 430.66 2855.31 459.594 2877.26 497.508C2899.21 534.757 2910.17 579.654 2910.17 632.201C2910.17 684.083 2899.21 728.981 2877.26 766.894C2855.31 804.804 2825.39 834.074 2787.48 854.69C2750.24 875.317 2708.01 885.625 2660.79 885.625ZM2664.78 840.722C2706.68 840.722 2743.59 832.078 2775.51 814.781C2807.43 796.822 2832.37 772.216 2850.32 740.953C2868.95 709.026 2878.25 672.776 2878.25 632.201C2878.25 590.962 2868.95 554.711 2850.32 523.449C2832.37 492.187 2807.43 467.909 2775.51 450.615C2743.59 433.321 2706.68 424.674 2664.78 424.674C2624.22 424.674 2587.64 433.321 2555.05 450.615C2523.13 467.909 2497.87 492.187 2479.24 523.449C2461.28 554.711 2452.31 590.962 2452.31 632.201C2452.31 672.776 2461.28 709.026 2479.24 740.953C2497.87 772.216 2523.13 796.822 2555.05 814.781C2587.64 832.078 2624.22 840.722 2664.78 840.722ZM3312.83 379.776C3355.38 379.776 3392.3 388.091 3423.55 404.719C3455.47 420.683 3480.08 445.294 3497.36 478.551C3515.32 511.144 3524.3 551.718 3524.3 600.274V904.576H3474.43V604.265C3474.43 545.732 3459.46 501.167 3429.53 470.569C3400.28 439.972 3359.04 424.674 3305.84 424.674C3265.28 424.674 3230.03 432.988 3200.1 449.617C3170.17 466.246 3147.24 489.526 3131.27 519.458C3115.98 549.39 3108.33 585.308 3108.33 627.212V904.576H3058.45V383.767H3106.33V528.437L3099.35 512.474C3115.31 471.235 3141.58 438.975 3178.15 415.694C3214.74 391.749 3259.62 379.776 3312.83 379.776ZM3649.84 904.576V383.767H3699.72V904.576H3649.84ZM3674.78 257.055C3663.48 257.055 3653.83 253.064 3645.85 245.083C3637.87 237.101 3633.88 227.789 3633.88 217.146C3633.88 205.839 3637.87 196.194 3645.85 188.212C3653.83 180.23 3663.48 176.239 3674.78 176.239C3686.75 176.239 3696.39 180.23 3703.71 188.212C3711.69 195.529 3715.68 204.842 3715.68 216.148C3715.68 227.456 3711.69 237.101 3703.71 245.083C3696.39 253.064 3686.75 257.055 3674.78 257.055ZM3981.76 908.567C3935.88 908.567 3900.64 895.933 3876.02 870.654C3852.08 845.385 3840.11 810.79 3840.11 766.894V270.026H3889.99V761.906C3889.99 795.168 3898.31 820.767 3914.93 838.726C3931.55 856.685 3955.5 865.67 3986.76 865.67C4019.34 865.67 4046.28 856.024 4067.55 836.731L4088.5 871.657C4075.2 884.291 4058.91 893.607 4039.62 899.593C4021 905.579 4001.71 908.567 3981.76 908.567ZM3744.35 426.669V383.767H4055.58V426.669H3744.35ZM4147.79 904.576V383.767H4197.67V904.576H4147.79ZM4172.73 257.055C4161.43 257.055 4151.78 253.064 4143.8 245.083C4135.82 237.101 4131.83 227.789 4131.83 217.146C4131.83 205.839 4135.82 196.194 4143.8 188.212C4151.78 180.23 4161.43 176.239 4172.73 176.239C4184.7 176.239 4194.35 180.23 4201.66 188.212C4209.64 195.529 4213.63 204.842 4213.63 216.148C4213.63 227.456 4209.64 237.101 4201.66 245.083C4194.35 253.064 4184.7 257.055 4172.73 257.055ZM4707.99 908.567C4658.11 908.567 4613.55 897.267 4574.32 874.644C4535.74 852.033 4504.82 820.767 4481.54 780.858C4458.94 740.953 4447.63 695.391 4447.63 644.174C4447.63 592.292 4458.94 546.729 4481.54 507.485C4504.82 467.576 4535.74 436.314 4574.32 413.699C4613.55 391.084 4658.11 379.776 4707.99 379.776C4757.87 379.776 4802.42 391.084 4841.66 413.699C4880.89 436.314 4911.82 467.576 4934.42 507.485C4957.04 546.729 4968.34 592.292 4968.34 644.174C4968.34 695.391 4957.04 740.953 4934.42 780.858C4911.82 820.767 4880.89 852.033 4841.66 874.644C4802.42 897.267 4757.87 908.567 4707.99 908.567ZM4707.99 863.675C4747.89 863.675 4783.8 854.69 4815.72 836.731C4847.64 818.11 4872.58 792.169 4890.53 758.912C4908.49 725.656 4917.47 687.409 4917.47 644.174C4917.47 600.274 4908.49 562.028 4890.53 529.435C4872.58 496.178 4847.64 470.569 4815.72 452.61C4783.8 433.986 4747.89 424.674 4707.99 424.674C4668.09 424.674 4632.18 433.986 4600.26 452.61C4569 470.569 4544.06 496.178 4525.44 529.435C4507.48 562.028 4498.51 600.274 4498.51 644.174C4498.51 687.409 4507.48 725.656 4525.44 758.912C4544.06 792.169 4569 818.11 4600.26 836.731C4632.18 854.69 4668.09 863.675 4707.99 863.675ZM5297.64 379.776C5340.21 379.776 5377.12 388.091 5408.38 404.719C5440.3 420.683 5464.9 445.294 5482.19 478.551C5500.15 511.144 5509.12 551.718 5509.12 600.274V904.576H5459.25V604.265C5459.25 545.732 5444.29 501.167 5414.36 470.569C5385.1 439.972 5343.86 424.674 5290.67 424.674C5250.09 424.674 5214.85 432.988 5184.93 449.617C5155 466.246 5132.05 489.526 5116.09 519.458C5100.8 549.39 5093.16 585.308 5093.16 627.212V904.576H5043.28V383.767H5091.16V528.437L5084.17 512.474C5100.13 471.235 5126.4 438.975 5162.98 415.694C5199.56 391.749 5244.45 379.776 5297.64 379.776Z" fill="#070044"/>
<path d="M5592.65 240.985H4420.56C4389.33 240.985 4364.02 266.306 4364.02 297.541V941.805C4364.02 973.04 4389.33 998.361 4420.56 998.361H5592.65C5623.88 998.361 5649.19 973.04 5649.19 941.805V297.541C5649.19 266.306 5623.88 240.985 5592.65 240.985Z" stroke="#070044" stroke-width="36" stroke-linejoin="round"/>
<path d="M4718.22 447.526V347.119" stroke="#080061" stroke-width="48" stroke-linecap="round"/>
</g>
<defs>
<clipPath id="clip0_407_119">
<rect width="5760" height="1440" fill="white"/>
</clipPath>
</defs>
</svg>
